<svg xmlns="http://www.w3.org/2000/svg" width="146.59" height="146.281" viewBox="0 0 146.59 146.281">
  <defs>
    <style>
      .cls-1 {
        fill: #fff;
        fill-rule: evenodd;
      }
    </style>
  </defs>
  <path id="Forma_1" data-name="Forma 1" class="cls-1" d="M1357.32,405.326a3.314,3.314,0,0,0-4.69-4.682l-12.66,12.635a3.314,3.314,0,0,0,4.69,4.682ZM1440.8,316.7a15.58,15.58,0,1,0,22.02,0A15.608,15.608,0,0,0,1440.8,316.7Zm17.33,17.3a8.958,8.958,0,0,1-12.64,0A8.94,8.94,0,1,1,1458.13,334Zm-90.35,77.086a3.32,3.32,0,0,0-4.69,0l-17.76,17.722a3.314,3.314,0,0,0,4.69,4.682l17.76-17.722A3.316,3.316,0,0,0,1367.78,411.085Zm115.7-112.693a3.314,3.314,0,0,0-2.31-2.3,62.2,62.2,0,0,0-37.87,1.883,73.611,73.611,0,0,0-26.22,16.323l-10.32,10.294-37.37,5.825a3.339,3.339,0,0,0-1.83.93l-23.9,23.852a3.306,3.306,0,0,0,2.21,5.648l23.57,0.99-5.91,5.9a3.316,3.316,0,0,0,0,4.682l3.45,3.441-10.3,15.757a3.3,3.3,0,0,0,.43,4.15l26.5,26.44a3.311,3.311,0,0,0,4.15.432l15.79-10.28,3.45,3.441a3.32,3.32,0,0,0,4.69,0l5.91-5.9,0.99,23.528a3.319,3.319,0,0,0,5.66,2.2l23.9-23.852a3.3,3.3,0,0,0,.93-1.83l5.84-37.293,10.32-10.294a73.555,73.555,0,0,0,16.35-26.173A61.87,61.87,0,0,0,1483.48,298.392Zm-97.09,117.226-22.68-22.641,8.07-12.34,11.14,11.124-1.31,1.308a3.314,3.314,0,0,0,4.69,4.682l1.31-1.308,11.15,11.124Zm74.15-57.942-11.08,11.057v0l-11.53,11.5a3.314,3.314,0,0,0,4.69,4.682l4.34-4.33-4.26,27.262-17.8,17.757-0.93-22.075,9.27-9.251a3.313,3.313,0,0,0-4.69-4.681l-10.29,10.269a0.039,0.039,0,0,1-.02.016l-8.89,8.879-2.96-2.951c-0.03-.035-0.07-0.069-0.1-0.1l-13.99-13.955,40.12-40.037a3.314,3.314,0,0,0-4.69-4.682l-40.12,40.038-13.98-13.956c-0.03-.034-0.07-0.068-0.1-0.1l-2.96-2.953,8.9-8.88s0.01-.01.01-0.015l10.29-10.27a3.314,3.314,0,1,0-4.69-4.682l-9.27,9.25-22.12-.928,17.8-17.757,27.31-4.259-4.34,4.331,4.69,4.682,11.5-11.471c0.02-.024.05-0.048,0.07-0.073l11.05-11.023c9.23-9.212,31.14-22.861,55.79-16.981C1483.45,326.59,1469.77,348.464,1460.54,357.676ZM1374.02,422l-12.66,12.634a3.314,3.314,0,0,0,4.69,4.682l12.66-12.634A3.314,3.314,0,1,0,1374.02,422Z" transform="translate(-1339 -294)"/>
</svg>
