<svg xmlns="http://www.w3.org/2000/svg" width="92.44" height="92.6" viewBox="0 0 92.44 92.6">
  <defs>
    <style>
      .cls-1 {
        fill: #fff;
        fill-rule: evenodd;
      }
    </style>
  </defs>
  <path id="Rectangle_5_copy" data-name="Rectangle 5 copy" class="cls-1" d="M1371.32,1205.25l85.76,85.67a3.09,3.09,0,0,1,0,4.39l-0.46.46a3.108,3.108,0,0,1-4.39,0l-85.76-85.67a3.09,3.09,0,0,1,0-4.39l0.46-.46A3.108,3.108,0,0,1,1371.32,1205.25Zm85.3,0.23,0.46,0.46a3.09,3.09,0,0,1,0,4.39L1371.32,1296a3.09,3.09,0,0,1-4.39,0l-0.46-.46a3.09,3.09,0,0,1,0-4.39l85.76-85.67A3.108,3.108,0,0,1,1456.62,1205.48Z" transform="translate(-1365.56 -1204.34)"/>
</svg>
