<svg xmlns="http://www.w3.org/2000/svg" width="146.5" height="105.687" viewBox="0 0 146.5 105.687">
  <defs>
    <style>
      .cls-1 {
        fill: #fff;
        fill-rule: evenodd;
      }
    </style>
  </defs>
  <path id="Forma_1" data-name="Forma 1" class="cls-1" d="M1488.4,999.384V906.92a6.545,6.545,0,0,0-1.74-4.444,0.235,0.235,0,0,0-.05-0.057,6.605,6.605,0,0,0-4.84-2.115H1348.54a6.608,6.608,0,0,0-4.84,2.11l-0.06.063a6.581,6.581,0,0,0-1.73,4.443v92.464a6.55,6.55,0,0,0,1.74,4.446c0.01,0.02.03,0.03,0.04,0.05a6.621,6.621,0,0,0,4.85,2.12h133.23a6.627,6.627,0,0,0,4.84-2.11,0.265,0.265,0,0,0,.05-0.06A6.55,6.55,0,0,0,1488.4,999.384Zm-114-27.025a3.312,3.312,0,0,0-4.68.095l-21.18,22.016V911.834l39.74,41.318-10.73,11.161a3.311,3.311,0,0,0,4.78,4.583l10.55-10.967,15.29,15.9a9.663,9.663,0,0,0,13.97,0l15.29-15.9,39.88,41.455H1353l21.5-22.348A3.3,3.3,0,0,0,1374.4,972.359Zm42.95-3.113a3.031,3.031,0,0,1-2.2.952,3.064,3.064,0,0,1-2.2-.952L1353,906.92h124.31Zm24.67-16.094,39.75-41.318v82.637Z" transform="translate(-1341.91 -900.313)"/>
</svg>
