<svg xmlns="http://www.w3.org/2000/svg" width="144.97" height="76.97" viewBox="0 0 144.97 76.97">
  <defs>
    <style>
      .cls-1 {
        fill: #fff;
        fill-rule: evenodd;
      }
    </style>
  </defs>
  <path id="Rectangle_1_copy" data-name="Rectangle 1 copy" class="cls-1" d="M1342.06,1581.76l68.6-69.14a3.592,3.592,0,0,1,5.12,0h0a3.658,3.658,0,0,1,0,5.16l-68.6,69.14a3.592,3.592,0,0,1-5.12,0h0A3.658,3.658,0,0,1,1342.06,1581.76Zm69.15-69.69h0a3.592,3.592,0,0,1,5.12,0l68.6,69.14a3.658,3.658,0,0,1,0,5.16h0a3.609,3.609,0,0,1-5.12,0l-68.6-69.14A3.658,3.658,0,0,1,1411.21,1512.07Z" transform="translate(-1341.03 -1511.03)"/>
</svg>
