<svg xmlns="http://www.w3.org/2000/svg" width="146.5" height="116.469" viewBox="0 0 146.5 116.469">
  <defs>
    <style>
      .cls-1 {
        fill: #fff;
        fill-rule: evenodd;
      }
    </style>
  </defs>
  <path id="Forma_1" data-name="Forma 1" class="cls-1" d="M1478.22,610.258h-42.53V597.309a3.317,3.317,0,0,0-3.32-3.309h-39.29a3.309,3.309,0,0,0-3.31,3.309v12.949h-42.53a7.758,7.758,0,0,0-7.76,7.741v84.717a7.759,7.759,0,0,0,7.76,7.741h130.98a7.757,7.757,0,0,0,7.75-7.741V618A7.756,7.756,0,0,0,1478.22,610.258Zm-81.83-9.639h32.67v9.639h-32.67v-9.639h0ZM1346.11,618a1.129,1.129,0,0,1,1.13-1.122h130.98a1.121,1.121,0,0,1,1.12,1.122v24.62a10.69,10.69,0,0,1-10.69,10.673h-45.39v-11a3.308,3.308,0,0,0-3.31-3.309h-14.44a3.316,3.316,0,0,0-3.32,3.309v11H1356.8a10.7,10.7,0,0,1-10.69-10.673V618Zm62.71,41.912h7.81V663.7a3.905,3.905,0,0,1-7.81,0v-3.789Zm0-6.619V645.6h7.81v7.689h-7.81Zm69.4,50.546H1347.24a1.13,1.13,0,0,1-1.13-1.122V656.209a17.261,17.261,0,0,0,10.69,3.7h45.39V663.7a10.535,10.535,0,0,0,21.07,0v-3.789h45.39a17.261,17.261,0,0,0,10.69-3.7v46.507A1.121,1.121,0,0,1,1478.22,703.838Z" transform="translate(-1339.47 -594)"/>
</svg>
